<?xml version="1.0" encoding="UTF-8"?>
<svg width="789px" height="785px" viewBox="0 0 789 785" version="1.1" xmlns="http://www.w3.org/2000/svg" xmlns:xlink="http://www.w3.org/1999/xlink">
    <title>Bubble Bottom Left</title>
    <defs>
        <linearGradient x1="43.9344266%" y1="99.0784962%" x2="72.6229516%" y2="-77.9982427%" id="linearGradient-1">
            <stop stop-color="#4D4DF9" offset="0%"></stop>
            <stop stop-color="#32A9FF" offset="100%"></stop>
        </linearGradient>
        <linearGradient x1="65.3213792%" y1="71.5812043%" x2="14.3160175%" y2="7.90598533%" id="linearGradient-2">
            <stop stop-color="#3F50E9" offset="0%"></stop>
            <stop stop-color="#60CFFF" stop-opacity="0" offset="100%"></stop>
        </linearGradient>
    </defs>
    <g id="Assets" stroke="none" stroke-width="1" fill="none" fill-rule="evenodd">
        <g id="Bubbles" transform="translate(0, -866)" fill-rule="nonzero">
            <g id="Bubble-Bottom-Left" transform="translate(394.0177, 1258.5778) scale(-1, -1) rotate(-32) translate(-394.0177, -1258.5778)translate(105.6518, 976.5168)">
                <path d="M257.401577,10.9491857 C308.209016,14.2954263 361.432393,22.7827046 399.104044,56.9832514 C435.023218,89.5927962 439.685375,141.650418 452.779459,188.324746 C465.242831,232.750872 490.139577,278.770891 473.387273,321.768358 C456.838583,364.243215 406.463714,379.053874 368.568832,404.464755 C332.430543,428.697728 300.932562,467.016014 257.401577,466.603558 C213.966546,466.185302 179.206149,432.281926 147.769161,402.355656 C119.897446,375.823329 109.555179,338.855822 89.0322378,306.321926 C59.0867897,258.851042 -2.50501476,224.271809 0.0788226943,168.230241 C2.68200166,111.769172 53.1492849,66.889664 101.432077,37.378211 C147.534627,9.19936644 203.46263,7.39670053 257.401577,10.9491857 Z" id="Vector" fill="url(#linearGradient-1)"></path>
                <path d="M288.764433,48.0609626 C337.935449,48.3679122 361.954897,108.339889 401.703337,137.306995 C441.38352,166.224358 507.265776,170.190273 521.042295,217.337253 C534.870196,264.660072 487.993198,306.82449 463.785002,349.767261 C444.80863,383.429325 424.541673,414.404251 395.55258,439.942676 C363.626959,468.068085 330.313593,494.845159 288.764433,503.954578 C239.546709,514.745288 180.108778,528.079235 141.542665,495.632954 C102.902681,463.124523 116.546631,401.452915 107.794451,351.701649 C100.535948,310.441109 82.3528445,269.794811 94.7753051,229.786549 C107.27819,189.519268 144.039694,164.713293 174.801405,135.896465 C210.683851,102.282658 239.613676,47.7566962 288.764433,48.0609626 Z" id="Vector" fill="url(#linearGradient-2)" transform="translate(307.0451, 282.061) rotate(15) translate(-307.0451, -282.061)"></path>
            </g>
        </g>
    </g>
</svg>