<?xml version="1.0" encoding="UTF-8"?>
<svg width="786px" height="775px" viewBox="0 0 786 775" version="1.1" xmlns="http://www.w3.org/2000/svg" xmlns:xlink="http://www.w3.org/1999/xlink">
    <title>Bubble Top Left</title>
    <defs>
        <linearGradient x1="94.1266016%" y1="80.2911069%" x2="19.792919%" y2="26.5218367%" id="linearGradient-1">
            <stop stop-color="#BD00FF" stop-opacity="0" offset="0%"></stop>
            <stop stop-color="#00A0DF" offset="100%"></stop>
        </linearGradient>
        <linearGradient x1="22.6611228%" y1="86.9854915%" x2="58.6278606%" y2="17.5679987%" id="linearGradient-2">
            <stop stop-color="#BD00FF" stop-opacity="0" offset="0%"></stop>
            <stop stop-color="#00A0DF" offset="100%"></stop>
        </linearGradient>
    </defs>
    <g id="Assets" stroke="none" stroke-width="1" fill="none" fill-rule="evenodd">
        <g id="Bubbles" transform="translate(-111, 0)" fill-rule="nonzero">
            <g id="Bubble-Top-Left" transform="translate(504.375, 387.099) scale(-1, -1) rotate(-300) translate(-504.375, -387.099)translate(226.4341, 94.3088)">
                <path d="M259.139306,70.3647908 C314.846623,68.1154379 354.500729,117.200674 396.999867,153.264301 C445.660739,194.55661 509.379031,228.001529 519.193339,291.03967 C529.939999,360.066386 501.497886,434.859899 447.804794,479.588523 C397.032399,521.884083 324.106307,519.844112 259.139306,507.675738 C205.987733,497.720405 168.948553,457.591505 130.0301,420.06907 C89.9679358,381.443949 34.0184543,346.669816 34.4409232,291.03967 C34.8671853,235.542786 92.3775624,202.864742 131.986089,163.965038 C171.017671,125.631956 204.459994,72.5726349 259.139306,70.3647908 Z" id="Vector" fill="url(#linearGradient-1)" transform="translate(277.9409, 292.7902) rotate(-75) translate(-277.9409, -292.7902)"></path>
                <path d="M271.388674,59.6860355 C327.260216,70.3502065 355.691605,125.982845 398.695844,163.159215 C448.157121,205.917574 538.63481,224.949107 538.122681,290.270769 C537.605799,355.643738 449.659781,376.944211 396.709842,415.399407 C356.661194,444.484966 320.896248,482.775846 271.388674,483.986297 C220.930632,485.219987 176.047949,456.725526 139.775839,421.681383 C102.782531,385.940457 79.7632526,340.898228 70.8852287,290.270769 C59.6535632,226.221531 41.2103921,152.175444 83.9051115,103.075284 C127.626406,52.7945338 205.885268,47.183435 271.388674,59.6860355 Z" id="Vector" fill="url(#linearGradient-2)"></path>
            </g>
        </g>
    </g>
</svg>